<svg class="blob" width="600" height="600" viewBox="0 0 600 600" xmlns="http://www.w3.org/2000/svg">
<defs>
<linearGradient id="lgrad" x1="100%" y1="100%" x2="0%" y2="0%" >
  <stop offset="0%" style="stop-color:rgb(229,117,117);stop-opacity:1" />
  <stop offset="50%" style="stop-color:rgb(243,159,96);stop-opacity:1" />
  <stop offset="100%" style="stop-color:rgb(255,234,174);stop-opacity:1" />
</linearGradient>
</defs>
  <g transform="translate(300, 300)"><path fill="url(#lgrad)" d="M164.6,-193.2C211.4,-156.9,246,-103.2,244.3,-52.1C242.5,-1,204.4,47.5,172.9,97.7C141.4,147.9,116.5,199.9,73.6,225.7C30.7,251.5,-30.3,251.2,-84.4,231.7C-138.5,212.1,-185.7,173.3,-194.2,127.3C-202.6,81.3,-172.2,28.2,-155.8,-20.9C-139.3,-70,-136.8,-115.1,-113.2,-155.4C-89.6,-195.7,-44.8,-231.4,7.1,-239.8C58.9,-248.2,117.8,-229.4,164.6,-193.2Z" stroke="none" stroke-width="0"></path></g>
</svg>
